<svg width="861" height="644" viewBox="0 0 861 644" fill="none" xmlns="http://www.w3.org/2000/svg">
<ellipse opacity="0.5" cx="351.405" cy="288.285" rx="350.421" ry="287.592" fill="url(#paint0_radial_396_676)"/>
<g style="mix-blend-mode:screen" opacity="0.5">
<ellipse cx="510.476" cy="355.779" rx="350.421" ry="287.592" fill="url(#paint1_radial_396_676)"/>
</g>
<g filter="url(#filter0_di_396_676)">
<path d="M417.303 200.845L441.993 164.119L430.905 153.961L405.482 189.181C408.682 196.822 411.398 199.14 417.303 200.845Z" fill="url(#paint2_linear_396_676)"/>
</g>
<g filter="url(#filter1_di_396_676)">
<path d="M427.246 200.441L411.323 168.755L423.448 159.574L440.252 189.738C436.312 197.556 433.358 199.618 427.246 200.441Z" fill="url(#paint3_linear_396_676)"/>
</g>
<g filter="url(#filter2_i_396_676)">
<ellipse cx="411.005" cy="153.982" rx="16.692" ry="14.1817" transform="rotate(-5.16712 411.005 153.982)" fill="url(#paint4_linear_396_676)"/>
</g>
<ellipse opacity="0.5" cx="442.271" cy="519.561" rx="257.452" ry="33.0548" fill="url(#paint5_radial_396_676)"/>
<path d="M349.876 514.88C288.236 505.684 225.805 504.878 266.419 403.568C268.153 399.241 269.451 394.615 269.969 389.983C275.078 344.375 270.044 336.839 275.598 313.977C288.123 262.421 312.474 232.816 332.553 221.217C335.378 219.585 338.5 218.559 341.675 217.804C417.777 199.68 484.501 192.865 511.934 200.866C534.757 207.522 558.355 243.627 566.308 256.763C568.219 259.921 570.411 262.895 572.648 265.831C581.948 278.031 585.746 291.042 587.297 299.633C588.45 306.022 589.647 312.523 592.115 318.528C614.715 373.528 616.031 374.664 633.723 433.781C646.848 492.551 620.69 508.858 602.922 513.302C593.616 515.628 583.986 517.563 575.047 521.042C511.287 545.852 413.11 524.314 349.876 514.88Z" fill="#8CFF00"/>
<path d="M349.876 514.88C288.236 505.684 225.805 504.878 266.419 403.568C268.153 399.241 269.451 394.615 269.969 389.983C275.078 344.375 270.044 336.839 275.598 313.977C288.123 262.421 312.474 232.816 332.553 221.217C335.378 219.585 338.5 218.559 341.675 217.804C417.777 199.68 484.501 192.865 511.934 200.866C534.757 207.522 558.355 243.627 566.308 256.763C568.219 259.921 570.411 262.895 572.648 265.831C581.948 278.031 585.746 291.042 587.297 299.633C588.45 306.022 589.647 312.523 592.115 318.528C614.715 373.528 616.031 374.664 633.723 433.781C646.848 492.551 620.69 508.858 602.922 513.302C593.616 515.628 583.986 517.563 575.047 521.042C511.287 545.852 413.11 524.314 349.876 514.88Z" fill="url(#paint6_linear_396_676)"/>
<path d="M349.876 514.88C288.236 505.684 225.805 504.878 266.419 403.568C268.153 399.241 269.451 394.615 269.969 389.983C275.078 344.375 270.044 336.839 275.598 313.977C288.123 262.421 312.474 232.816 332.553 221.217C335.378 219.585 338.5 218.559 341.675 217.804C417.777 199.68 484.501 192.865 511.934 200.866C534.757 207.522 558.355 243.627 566.308 256.763C568.219 259.921 570.411 262.895 572.648 265.831C581.948 278.031 585.746 291.042 587.297 299.633C588.45 306.022 589.647 312.523 592.115 318.528C614.715 373.528 616.031 374.664 633.723 433.781C646.848 492.551 620.69 508.858 602.922 513.302C593.616 515.628 583.986 517.563 575.047 521.042C511.287 545.852 413.11 524.314 349.876 514.88Z" fill="url(#paint7_radial_396_676)"/>
<path d="M349.876 514.88C288.236 505.684 225.805 504.878 266.419 403.568C268.153 399.241 269.451 394.615 269.969 389.983C275.078 344.375 270.044 336.839 275.598 313.977C288.123 262.421 312.474 232.816 332.553 221.217C335.378 219.585 338.5 218.559 341.675 217.804C417.777 199.68 484.501 192.865 511.934 200.866C534.757 207.522 558.355 243.627 566.308 256.763C568.219 259.921 570.411 262.895 572.648 265.831C581.948 278.031 585.746 291.042 587.297 299.633C588.45 306.022 589.647 312.523 592.115 318.528C614.715 373.528 616.031 374.664 633.723 433.781C646.848 492.551 620.69 508.858 602.922 513.302C593.616 515.628 583.986 517.563 575.047 521.042C511.287 545.852 413.11 524.314 349.876 514.88Z" fill="url(#paint8_radial_396_676)" fill-opacity="0.6"/>
<path d="M349.876 514.88C288.236 505.684 225.805 504.878 266.419 403.568C268.153 399.241 269.451 394.615 269.969 389.983C275.078 344.375 270.044 336.839 275.598 313.977C288.123 262.421 312.474 232.816 332.553 221.217C335.378 219.585 338.5 218.559 341.675 217.804C417.777 199.68 484.501 192.865 511.934 200.866C534.757 207.522 558.355 243.627 566.308 256.763C568.219 259.921 570.411 262.895 572.648 265.831C581.948 278.031 585.746 291.042 587.297 299.633C588.45 306.022 589.647 312.523 592.115 318.528C614.715 373.528 616.031 374.664 633.723 433.781C646.848 492.551 620.69 508.858 602.922 513.302C593.616 515.628 583.986 517.563 575.047 521.042C511.287 545.852 413.11 524.314 349.876 514.88Z" fill="url(#paint9_radial_396_676)" fill-opacity="0.6"/>
<path d="M349.876 514.88C288.236 505.684 225.805 504.878 266.419 403.568C268.153 399.241 269.451 394.615 269.969 389.983C275.078 344.375 270.044 336.839 275.598 313.977C288.123 262.421 312.474 232.816 332.553 221.217C335.378 219.585 338.5 218.559 341.675 217.804C417.777 199.68 484.501 192.865 511.934 200.866C534.757 207.522 558.355 243.627 566.308 256.763C568.219 259.921 570.411 262.895 572.648 265.831C581.948 278.031 585.746 291.042 587.297 299.633C588.45 306.022 589.647 312.523 592.115 318.528C614.715 373.528 616.031 374.664 633.723 433.781C646.848 492.551 620.69 508.858 602.922 513.302C593.616 515.628 583.986 517.563 575.047 521.042C511.287 545.852 413.11 524.314 349.876 514.88Z" fill="url(#paint10_linear_396_676)" fill-opacity="0.3"/>
<path d="M349.876 514.88C288.236 505.684 225.805 504.878 266.419 403.568C268.153 399.241 269.451 394.615 269.969 389.983C275.078 344.375 270.044 336.839 275.598 313.977C288.123 262.421 312.474 232.816 332.553 221.217C335.378 219.585 338.5 218.559 341.675 217.804C417.777 199.68 484.501 192.865 511.934 200.866C534.757 207.522 558.355 243.627 566.308 256.763C568.219 259.921 570.411 262.895 572.648 265.831C581.948 278.031 585.746 291.042 587.297 299.633C588.45 306.022 589.647 312.523 592.115 318.528C614.715 373.528 616.031 374.664 633.723 433.781C646.848 492.551 620.69 508.858 602.922 513.302C593.616 515.628 583.986 517.563 575.047 521.042C511.287 545.852 413.11 524.314 349.876 514.88Z" fill="url(#paint11_radial_396_676)" fill-opacity="0.8"/>
<path d="M349.876 514.88C288.236 505.684 225.805 504.878 266.419 403.568C268.153 399.241 269.451 394.615 269.969 389.983C275.078 344.375 270.044 336.839 275.598 313.977C288.123 262.421 312.474 232.816 332.553 221.217C335.378 219.585 338.5 218.559 341.675 217.804C417.777 199.68 484.501 192.865 511.934 200.866C534.757 207.522 558.355 243.627 566.308 256.763C568.219 259.921 570.411 262.895 572.648 265.831C581.948 278.031 585.746 291.042 587.297 299.633C588.45 306.022 589.647 312.523 592.115 318.528C614.715 373.528 616.031 374.664 633.723 433.781C646.848 492.551 620.69 508.858 602.922 513.302C593.616 515.628 583.986 517.563 575.047 521.042C511.287 545.852 413.11 524.314 349.876 514.88Z" fill="url(#paint12_radial_396_676)" fill-opacity="0.6"/>
<path d="M349.876 514.88C288.236 505.684 225.805 504.878 266.419 403.568C268.153 399.241 269.451 394.615 269.969 389.983C275.078 344.375 270.044 336.839 275.598 313.977C288.123 262.421 312.474 232.816 332.553 221.217C335.378 219.585 338.5 218.559 341.675 217.804C417.777 199.68 484.501 192.865 511.934 200.866C534.757 207.522 558.355 243.627 566.308 256.763C568.219 259.921 570.411 262.895 572.648 265.831C581.948 278.031 585.746 291.042 587.297 299.633C588.45 306.022 589.647 312.523 592.115 318.528C614.715 373.528 616.031 374.664 633.723 433.781C646.848 492.551 620.69 508.858 602.922 513.302C593.616 515.628 583.986 517.563 575.047 521.042C511.287 545.852 413.11 524.314 349.876 514.88Z" fill="url(#paint13_radial_396_676)" fill-opacity="0.8"/>
<g filter="url(#filter3_di_396_676)">
<path d="M330.634 206.168C304.125 223.271 297.283 259.616 297.283 259.616C297.283 259.616 324.221 222.412 344.317 218.995C370.827 213.433 479.432 191.199 510.645 201.464C554.686 216.426 554.686 320.759 554.686 320.759C560.749 317.605 564.369 314.469 571.362 305.366C571.362 305.366 582.051 189.492 518.342 178.375C476.439 174.095 337.476 198.467 330.634 206.168Z" fill="url(#paint14_linear_396_676)"/>
</g>
<path d="M557.417 322.273C552.882 277.371 542.802 226.14 525.976 210.623C525.708 210.386 525.439 210.148 525.168 209.91C525.439 210.139 525.708 210.376 525.976 210.623C544.229 226.844 553.737 243.158 563.527 322.273H557.417Z" fill="#244040"/>
<g filter="url(#filter4_d_396_676)">
<ellipse cx="565.836" cy="323.511" rx="21.4881" ry="26.0581" fill="url(#paint15_linear_396_676)"/>
</g>
<g filter="url(#filter5_d_396_676)">
<ellipse cx="567.054" cy="323.51" rx="18.2964" ry="22.1877" fill="url(#paint16_linear_396_676)"/>
</g>
<g filter="url(#filter6_d_396_676)">
<ellipse cx="568.701" cy="323.51" rx="13.0316" ry="15.8031" fill="url(#paint17_linear_396_676)"/>
</g>
<g filter="url(#filter7_di_396_676)">
<ellipse rx="16.692" ry="14.1817" transform="matrix(-0.979851 0.199729 0.199729 0.979851 438.249 151.517)" fill="url(#paint18_linear_396_676)"/>
</g>
<g style="mix-blend-mode:darken" opacity="0.2" filter="url(#filter8_f_396_676)">
<path d="M282.71 394.63C275.974 380.745 486.013 279.588 521.53 315.29C557.047 350.993 494.586 355.456 480.502 394.63C450.497 405.539 289.446 408.515 282.71 394.63Z" fill="url(#paint19_radial_396_676)"/>
</g>
<defs>
<filter id="filter0_di_396_676" x="402.642" y="145.442" width="42.1908" height="55.4041" filterUnits="userSpaceOnUse" color-interpolation-filters="sRGB">
<feFlood flood-opacity="0" result="BackgroundImageFix"/>
<feColorMatrix in="SourceAlpha" type="matrix" values="0 0 0 0 0 0 0 0 0 0 0 0 0 0 0 0 0 0 127 0" result="hardAlpha"/>
<feMorphology radius="2.83976" operator="erode" in="SourceAlpha" result="effect1_dropShadow_396_676"/>
<feOffset dy="-5.67953"/>
<feGaussianBlur stdDeviation="2.83976"/>
<feComposite in2="hardAlpha" operator="out"/>
<feColorMatrix type="matrix" values="0 0 0 0 0 0 0 0 0 0 0 0 0 0 0 0 0 0 0.15 0"/>
<feBlend mode="normal" in2="BackgroundImageFix" result="effect1_dropShadow_396_676"/>
<feBlend mode="normal" in="SourceGraphic" in2="effect1_dropShadow_396_676" result="shape"/>
<feColorMatrix in="SourceAlpha" type="matrix" values="0 0 0 0 0 0 0 0 0 0 0 0 0 0 0 0 0 0 127 0" result="hardAlpha"/>
<feOffset dx="2.83976" dy="-5.67953"/>
<feGaussianBlur stdDeviation="4.25964"/>
<feComposite in2="hardAlpha" operator="arithmetic" k2="-1" k3="1"/>
<feColorMatrix type="matrix" values="0 0 0 0 0 0 0 0 0 0 0 0 0 0 0 0 0 0 0.1 0"/>
<feBlend mode="normal" in2="shape" result="effect2_innerShadow_396_676"/>
</filter>
<filter id="filter1_di_396_676" x="408.483" y="151.055" width="34.6092" height="49.3865" filterUnits="userSpaceOnUse" color-interpolation-filters="sRGB">
<feFlood flood-opacity="0" result="BackgroundImageFix"/>
<feColorMatrix in="SourceAlpha" type="matrix" values="0 0 0 0 0 0 0 0 0 0 0 0 0 0 0 0 0 0 127 0" result="hardAlpha"/>
<feMorphology radius="2.83976" operator="erode" in="SourceAlpha" result="effect1_dropShadow_396_676"/>
<feOffset dy="-5.67953"/>
<feGaussianBlur stdDeviation="2.83976"/>
<feComposite in2="hardAlpha" operator="out"/>
<feColorMatrix type="matrix" values="0 0 0 0 0 0 0 0 0 0 0 0 0 0 0 0 0 0 0.15 0"/>
<feBlend mode="normal" in2="BackgroundImageFix" result="effect1_dropShadow_396_676"/>
<feBlend mode="normal" in="SourceGraphic" in2="effect1_dropShadow_396_676" result="shape"/>
<feColorMatrix in="SourceAlpha" type="matrix" values="0 0 0 0 0 0 0 0 0 0 0 0 0 0 0 0 0 0 127 0" result="hardAlpha"/>
<feOffset dx="2.83976" dy="-5.67953"/>
<feGaussianBlur stdDeviation="4.25964"/>
<feComposite in2="hardAlpha" operator="arithmetic" k2="-1" k3="1"/>
<feColorMatrix type="matrix" values="0 0 0 0 0 0 0 0 0 0 0 0 0 0 0 0 0 0 0.1 0"/>
<feBlend mode="normal" in2="shape" result="effect2_innerShadow_396_676"/>
</filter>
<filter id="filter2_i_396_676" x="394.332" y="136.938" width="36.1874" height="31.2499" filterUnits="userSpaceOnUse" color-interpolation-filters="sRGB">
<feFlood flood-opacity="0" result="BackgroundImageFix"/>
<feBlend mode="normal" in="SourceGraphic" in2="BackgroundImageFix" result="shape"/>
<feColorMatrix in="SourceAlpha" type="matrix" values="0 0 0 0 0 0 0 0 0 0 0 0 0 0 0 0 0 0 127 0" result="hardAlpha"/>
<feMorphology radius="2.83976" operator="erode" in="SourceAlpha" result="effect1_innerShadow_396_676"/>
<feOffset dx="2.83976" dy="-2.83976"/>
<feGaussianBlur stdDeviation="5.67953"/>
<feComposite in2="hardAlpha" operator="arithmetic" k2="-1" k3="1"/>
<feColorMatrix type="matrix" values="0 0 0 0 0 0 0 0 0 0 0 0 0 0 0 0 0 0 0.15 0"/>
<feBlend mode="normal" in2="shape" result="effect1_innerShadow_396_676"/>
</filter>
<filter id="filter3_di_396_676" x="296.283" y="174.875" width="276.753" height="145.885" filterUnits="userSpaceOnUse" color-interpolation-filters="sRGB">
<feFlood flood-opacity="0" result="BackgroundImageFix"/>
<feColorMatrix in="SourceAlpha" type="matrix" values="0 0 0 0 0 0 0 0 0 0 0 0 0 0 0 0 0 0 127 0" result="hardAlpha"/>
<feMorphology radius="1" operator="erode" in="SourceAlpha" result="effect1_dropShadow_396_676"/>
<feOffset dy="-2"/>
<feGaussianBlur stdDeviation="1"/>
<feComposite in2="hardAlpha" operator="out"/>
<feColorMatrix type="matrix" values="0 0 0 0 0 0 0 0 0 0 0 0 0 0 0 0 0 0 0.15 0"/>
<feBlend mode="normal" in2="BackgroundImageFix" result="effect1_dropShadow_396_676"/>
<feBlend mode="normal" in="SourceGraphic" in2="effect1_dropShadow_396_676" result="shape"/>
<feColorMatrix in="SourceAlpha" type="matrix" values="0 0 0 0 0 0 0 0 0 0 0 0 0 0 0 0 0 0 127 0" result="hardAlpha"/>
<feOffset dx="1" dy="-2"/>
<feGaussianBlur stdDeviation="1.5"/>
<feComposite in2="hardAlpha" operator="arithmetic" k2="-1" k3="1"/>
<feColorMatrix type="matrix" values="0 0 0 0 0 0 0 0 0 0 0 0 0 0 0 0 0 0 0.1 0"/>
<feBlend mode="normal" in2="shape" result="effect2_innerShadow_396_676"/>
</filter>
<filter id="filter4_d_396_676" x="543.348" y="294.453" width="44.9766" height="55.1172" filterUnits="userSpaceOnUse" color-interpolation-filters="sRGB">
<feFlood flood-opacity="0" result="BackgroundImageFix"/>
<feColorMatrix in="SourceAlpha" type="matrix" values="0 0 0 0 0 0 0 0 0 0 0 0 0 0 0 0 0 0 127 0" result="hardAlpha"/>
<feMorphology radius="1" operator="erode" in="SourceAlpha" result="effect1_dropShadow_396_676"/>
<feOffset dy="-2"/>
<feGaussianBlur stdDeviation="1"/>
<feComposite in2="hardAlpha" operator="out"/>
<feColorMatrix type="matrix" values="0 0 0 0 0 0 0 0 0 0 0 0 0 0 0 0 0 0 0.15 0"/>
<feBlend mode="normal" in2="BackgroundImageFix" result="effect1_dropShadow_396_676"/>
<feBlend mode="normal" in="SourceGraphic" in2="effect1_dropShadow_396_676" result="shape"/>
</filter>
<filter id="filter5_d_396_676" x="547.757" y="298.322" width="38.5933" height="47.375" filterUnits="userSpaceOnUse" color-interpolation-filters="sRGB">
<feFlood flood-opacity="0" result="BackgroundImageFix"/>
<feColorMatrix in="SourceAlpha" type="matrix" values="0 0 0 0 0 0 0 0 0 0 0 0 0 0 0 0 0 0 127 0" result="hardAlpha"/>
<feMorphology radius="1" operator="erode" in="SourceAlpha" result="effect1_dropShadow_396_676"/>
<feOffset dy="-2"/>
<feGaussianBlur stdDeviation="1"/>
<feComposite in2="hardAlpha" operator="out"/>
<feColorMatrix type="matrix" values="0 0 0 0 0 0 0 0 0 0 0 0 0 0 0 0 0 0 0.15 0"/>
<feBlend mode="normal" in2="BackgroundImageFix" result="effect1_dropShadow_396_676"/>
<feBlend mode="normal" in="SourceGraphic" in2="effect1_dropShadow_396_676" result="shape"/>
</filter>
<filter id="filter6_d_396_676" x="554.67" y="304.707" width="28.0635" height="34.6055" filterUnits="userSpaceOnUse" color-interpolation-filters="sRGB">
<feFlood flood-opacity="0" result="BackgroundImageFix"/>
<feColorMatrix in="SourceAlpha" type="matrix" values="0 0 0 0 0 0 0 0 0 0 0 0 0 0 0 0 0 0 127 0" result="hardAlpha"/>
<feMorphology radius="1" operator="erode" in="SourceAlpha" result="effect1_dropShadow_396_676"/>
<feOffset dy="-2"/>
<feGaussianBlur stdDeviation="1"/>
<feComposite in2="hardAlpha" operator="out"/>
<feColorMatrix type="matrix" values="0 0 0 0 0 0 0 0 0 0 0 0 0 0 0 0 0 0 0.15 0"/>
<feBlend mode="normal" in2="BackgroundImageFix" result="effect1_dropShadow_396_676"/>
<feBlend mode="normal" in="SourceGraphic" in2="effect1_dropShadow_396_676" result="shape"/>
</filter>
<filter id="filter7_di_396_676" x="411.381" y="133.373" width="46.3102" height="38.8547" filterUnits="userSpaceOnUse" color-interpolation-filters="sRGB">
<feFlood flood-opacity="0" result="BackgroundImageFix"/>
<feColorMatrix in="SourceAlpha" type="matrix" values="0 0 0 0 0 0 0 0 0 0 0 0 0 0 0 0 0 0 127 0" result="hardAlpha"/>
<feOffset dx="-5.13341" dy="1.28335"/>
<feGaussianBlur stdDeviation="2.56671"/>
<feComposite in2="hardAlpha" operator="out"/>
<feColorMatrix type="matrix" values="0 0 0 0 0 0 0 0 0 0 0 0 0 0 0 0 0 0 0.25 0"/>
<feBlend mode="normal" in2="BackgroundImageFix" result="effect1_dropShadow_396_676"/>
<feBlend mode="normal" in="SourceGraphic" in2="effect1_dropShadow_396_676" result="shape"/>
<feColorMatrix in="SourceAlpha" type="matrix" values="0 0 0 0 0 0 0 0 0 0 0 0 0 0 0 0 0 0 127 0" result="hardAlpha"/>
<feMorphology radius="2.83976" operator="erode" in="SourceAlpha" result="effect2_innerShadow_396_676"/>
<feOffset dx="2.83976" dy="-2.83976"/>
<feGaussianBlur stdDeviation="5.67953"/>
<feComposite in2="hardAlpha" operator="arithmetic" k2="-1" k3="1"/>
<feColorMatrix type="matrix" values="0 0 0 0 0 0 0 0 0 0 0 0 0 0 0 0 0 0 0.15 0"/>
<feBlend mode="normal" in2="shape" result="effect2_innerShadow_396_676"/>
</filter>
<filter id="filter8_f_396_676" x="277.919" y="303.072" width="259.021" height="105.522" filterUnits="userSpaceOnUse" color-interpolation-filters="sRGB">
<feFlood flood-opacity="0" result="BackgroundImageFix"/>
<feBlend mode="normal" in="SourceGraphic" in2="BackgroundImageFix" result="shape"/>
<feGaussianBlur stdDeviation="2.31659" result="effect1_foregroundBlur_396_676"/>
</filter>
<radialGradient id="paint0_radial_396_676" cx="0" cy="0" r="1" gradientUnits="userSpaceOnUse" gradientTransform="translate(351.405 288.285) rotate(90) scale(287.592 350.421)">
<stop stop-color="#21ADF6"/>
<stop offset="1" stop-color="#2A303C" stop-opacity="0"/>
</radialGradient>
<radialGradient id="paint1_radial_396_676" cx="0" cy="0" r="1" gradientUnits="userSpaceOnUse" gradientTransform="translate(510.476 355.779) rotate(90) scale(287.592 350.421)">
<stop stop-color="#8CFF00"/>
<stop offset="1" stop-color="#2A303C" stop-opacity="0"/>
</radialGradient>
<linearGradient id="paint2_linear_396_676" x1="429.27" y1="184.115" x2="406.492" y2="168.516" gradientUnits="userSpaceOnUse">
<stop stop-color="white"/>
<stop offset="0.158673" stop-color="#567373"/>
<stop offset="0.653696" stop-color="#D3FFFF"/>
<stop offset="1" stop-color="#AED0D0"/>
</linearGradient>
<linearGradient id="paint3_linear_396_676" x1="419.623" y1="185.294" x2="438.444" y2="175.53" gradientUnits="userSpaceOnUse">
<stop stop-color="white"/>
<stop offset="0.107292" stop-color="#567373"/>
<stop offset="0.653696" stop-color="#D3FFFF"/>
<stop offset="1" stop-color="#AED0D0"/>
</linearGradient>
<linearGradient id="paint4_linear_396_676" x1="408.967" y1="170.761" x2="403.931" y2="143.291" gradientUnits="userSpaceOnUse">
<stop stop-color="#3C5F5F"/>
<stop offset="1" stop-color="#FBFFF8"/>
</linearGradient>
<radialGradient id="paint5_radial_396_676" cx="0" cy="0" r="1" gradientUnits="userSpaceOnUse" gradientTransform="translate(442.271 519.561) rotate(90) scale(33.0548 257.452)">
<stop/>
<stop offset="1" stop-color="#2A303C" stop-opacity="0"/>
</radialGradient>
<linearGradient id="paint6_linear_396_676" x1="445.373" y1="197.553" x2="427.596" y2="506.432" gradientUnits="userSpaceOnUse">
<stop stop-color="#8CFF00" stop-opacity="0"/>
<stop offset="1" stop-color="#25785B"/>
</linearGradient>
<radialGradient id="paint7_radial_396_676" cx="0" cy="0" r="1" gradientUnits="userSpaceOnUse" gradientTransform="translate(315.24 503.898) rotate(-40.7604) scale(395.933 847.893)">
<stop stop-color="#0E5A6F"/>
<stop offset="1" stop-color="#8CFF00" stop-opacity="0"/>
</radialGradient>
<radialGradient id="paint8_radial_396_676" cx="0" cy="0" r="1" gradientUnits="userSpaceOnUse" gradientTransform="translate(379.444 420.264) rotate(9.3136) scale(214.017 688.134)">
<stop stop-color="#0E5A6F"/>
<stop offset="1" stop-color="#8CFF00" stop-opacity="0"/>
</radialGradient>
<radialGradient id="paint9_radial_396_676" cx="0" cy="0" r="1" gradientUnits="userSpaceOnUse" gradientTransform="translate(283.983 373.801) rotate(10.758) scale(171.979 942.29)">
<stop stop-color="#A8FFFF"/>
<stop offset="1" stop-color="#8CFF00" stop-opacity="0"/>
</radialGradient>
<linearGradient id="paint10_linear_396_676" x1="346.497" y1="236.102" x2="395.625" y2="387.302" gradientUnits="userSpaceOnUse">
<stop stop-color="#104835"/>
<stop offset="1" stop-color="#8CFF00" stop-opacity="0"/>
</linearGradient>
<radialGradient id="paint11_radial_396_676" cx="0" cy="0" r="1" gradientUnits="userSpaceOnUse" gradientTransform="translate(593.174 425.333) rotate(166.361) scale(118.224 380.845)">
<stop stop-color="#0E5A6F"/>
<stop offset="1" stop-color="#8CFF00" stop-opacity="0"/>
</radialGradient>
<radialGradient id="paint12_radial_396_676" cx="0" cy="0" r="1" gradientUnits="userSpaceOnUse" gradientTransform="translate(619.699 381.345) rotate(159.212) scale(67.4464 368.816)">
<stop stop-color="#A8FFFF"/>
<stop offset="1" stop-color="#8CFF00" stop-opacity="0"/>
</radialGradient>
<radialGradient id="paint13_radial_396_676" cx="0" cy="0" r="1" gradientUnits="userSpaceOnUse" gradientTransform="translate(541.34 453.492) rotate(-136.078) scale(142.911 168.641)">
<stop stop-color="#D8FFA9"/>
<stop offset="1" stop-color="#4AA93A" stop-opacity="0"/>
</radialGradient>
<linearGradient id="paint14_linear_396_676" x1="560.135" y1="311.49" x2="305.081" y2="136.816" gradientUnits="userSpaceOnUse">
<stop stop-color="#1B3636"/>
<stop offset="0.653696" stop-color="#D3FFFF"/>
<stop offset="1" stop-color="#AED0D0"/>
</linearGradient>
<linearGradient id="paint15_linear_396_676" x1="541.507" y1="315.981" x2="588.489" y2="332.966" gradientUnits="userSpaceOnUse">
<stop stop-color="#041B28"/>
<stop offset="1" stop-color="#E8E8E8"/>
</linearGradient>
<linearGradient id="paint16_linear_396_676" x1="536.926" y1="308.998" x2="591.97" y2="336.593" gradientUnits="userSpaceOnUse">
<stop stop-color="#041B28"/>
<stop offset="1" stop-color="#E8E8E8"/>
</linearGradient>
<linearGradient id="paint17_linear_396_676" x1="553.845" y1="328.467" x2="583.98" y2="319.595" gradientUnits="userSpaceOnUse">
<stop stop-color="#041B28"/>
<stop offset="1" stop-color="#E8E8E8"/>
</linearGradient>
<linearGradient id="paint18_linear_396_676" x1="14.6535" y1="30.9602" x2="9.61758" y2="3.49017" gradientUnits="userSpaceOnUse">
<stop stop-color="#3C5F5F"/>
<stop offset="1" stop-color="#FBFFF8"/>
</linearGradient>
<radialGradient id="paint19_radial_396_676" cx="0" cy="0" r="1" gradientUnits="userSpaceOnUse" gradientTransform="translate(449.199 355.833) rotate(-91.889) scale(67.2281 232.58)">
<stop stop-color="#25785B"/>
<stop offset="1" stop-color="#57B169" stop-opacity="0"/>
</radialGradient>
</defs>
</svg>
