<svg width="129" height="129" viewBox="0 0 129 129" fill="none" xmlns="http://www.w3.org/2000/svg">
<g filter="url(#filter0_di_428_1183)">
<path d="M93.0968 39.0992L93.8358 31.7528L90.4421 31.3903L89.3827 38.5982C90.9032 39.3498 91.715 39.4152 93.0968 39.0992Z" fill="url(#paint0_linear_428_1183)"/>
</g>
<g filter="url(#filter1_i_428_1183)">
<ellipse rx="3.87376" ry="3.29119" transform="matrix(-0.993857 0.110671 0.110671 0.993857 92.7765 29.0864)" fill="url(#paint1_linear_428_1183)"/>
</g>
<path d="M88.2444 37.8418C68.3442 34.0632 50.5846 49.5553 50.5846 49.5553L41.2642 79.154L102.099 88.7263C102.099 88.7263 108.145 41.6203 88.2444 37.8418Z" fill="url(#paint2_linear_428_1183)"/>
<path d="M26.5412 68.0729C30.2477 57.9642 31.5837 54.5212 33.1121 45.8335C40.043 28.7582 67.8704 63.6649 90.2268 86.6058C103.368 83.311 96.6924 51.2298 103.368 60.4913C104.158 61.5872 103.22 70.0155 105.895 74.4752C113.983 87.9538 109.771 88.2906 113.14 97.894C116.51 107.498 104.004 125.904 62.7644 122.155C62.7644 122.155 17.6118 116.932 17.6118 95.3668C17.6118 73.8012 22.8346 78.1817 26.5412 68.0729Z" fill="#8CFF00"/>
<path d="M26.5412 68.0729C30.2477 57.9642 31.5837 54.5212 33.1121 45.8335C40.043 28.7582 67.8704 63.6649 90.2268 86.6058C103.368 83.311 96.6924 51.2298 103.368 60.4913C104.158 61.5872 103.22 70.0155 105.895 74.4752C113.983 87.9538 109.771 88.2906 113.14 97.894C116.51 107.498 104.004 125.904 62.7644 122.155C62.7644 122.155 17.6118 116.932 17.6118 95.3668C17.6118 73.8012 22.8346 78.1817 26.5412 68.0729Z" fill="url(#paint3_radial_428_1183)"/>
<path d="M26.5412 68.0729C30.2477 57.9642 31.5837 54.5212 33.1121 45.8335C40.043 28.7582 67.8704 63.6649 90.2268 86.6058C103.368 83.311 96.6924 51.2298 103.368 60.4913C104.158 61.5872 103.22 70.0155 105.895 74.4752C113.983 87.9538 109.771 88.2906 113.14 97.894C116.51 107.498 104.004 125.904 62.7644 122.155C62.7644 122.155 17.6118 116.932 17.6118 95.3668C17.6118 73.8012 22.8346 78.1817 26.5412 68.0729Z" fill="url(#paint4_radial_428_1183)" fill-opacity="0.6"/>
<path d="M26.5412 68.0729C30.2477 57.9642 31.5837 54.5212 33.1121 45.8335C40.043 28.7582 67.8704 63.6649 90.2268 86.6058C103.368 83.311 96.6924 51.2298 103.368 60.4913C104.158 61.5872 103.22 70.0155 105.895 74.4752C113.983 87.9538 109.771 88.2906 113.14 97.894C116.51 107.498 104.004 125.904 62.7644 122.155C62.7644 122.155 17.6118 116.932 17.6118 95.3668C17.6118 73.8012 22.8346 78.1817 26.5412 68.0729Z" fill="url(#paint5_radial_428_1183)" fill-opacity="0.6"/>
<path d="M26.5412 68.0729C30.2477 57.9642 31.5837 54.5212 33.1121 45.8335C40.043 28.7582 67.8704 63.6649 90.2268 86.6058C103.368 83.311 96.6924 51.2298 103.368 60.4913C104.158 61.5872 103.22 70.0155 105.895 74.4752C113.983 87.9538 109.771 88.2906 113.14 97.894C116.51 107.498 104.004 125.904 62.7644 122.155C62.7644 122.155 17.6118 116.932 17.6118 95.3668C17.6118 73.8012 22.8346 78.1817 26.5412 68.0729Z" fill="url(#paint6_radial_428_1183)" fill-opacity="0.8"/>
<path d="M26.5412 68.0729C30.2477 57.9642 31.5837 54.5212 33.1121 45.8335C40.043 28.7582 67.8704 63.6649 90.2268 86.6058C103.368 83.311 96.6924 51.2298 103.368 60.4913C104.158 61.5872 103.22 70.0155 105.895 74.4752C113.983 87.9538 109.771 88.2906 113.14 97.894C116.51 107.498 104.004 125.904 62.7644 122.155C62.7644 122.155 17.6118 116.932 17.6118 95.3668C17.6118 73.8012 22.8346 78.1817 26.5412 68.0729Z" fill="url(#paint7_radial_428_1183)" fill-opacity="0.6"/>
<path d="M26.5412 68.0729C30.2477 57.9642 31.5837 54.5212 33.1121 45.8335C40.043 28.7582 67.8704 63.6649 90.2268 86.6058C103.368 83.311 96.6924 51.2298 103.368 60.4913C104.158 61.5872 103.22 70.0155 105.895 74.4752C113.983 87.9538 109.771 88.2906 113.14 97.894C116.51 107.498 104.004 125.904 62.7644 122.155C62.7644 122.155 17.6118 116.932 17.6118 95.3668C17.6118 73.8012 22.8346 78.1817 26.5412 68.0729Z" fill="url(#paint8_radial_428_1183)" fill-opacity="0.8"/>
<g filter="url(#filter2_di_428_1183)">
<path d="M90.1652 40.4408C107.503 48.2234 94.0069 81.9148 94.0069 81.9148L98.0462 83.097C98.0462 83.097 114.695 47.1397 90.1652 37.4854C70.7581 31.7717 52.1392 46.5486 52.1392 46.5486L52.9272 48.2234C68.2427 41.1888 77.4161 34.2282 90.1652 40.4408Z" fill="url(#paint9_linear_428_1183)"/>
</g>
<g filter="url(#filter3_di_428_1183)">
<path d="M87.1345 86.8032C54.3686 54.561 37.8093 39.0249 33.6423 46.9055C31.7709 43.9501 33.6422 40.6992 37.0901 39.2215C51.9659 37.5467 89.2035 80.5969 89.2035 80.5969L87.1345 86.8032Z" fill="url(#paint10_linear_428_1183)"/>
</g>
<g filter="url(#filter4_d_428_1183)">
<ellipse cx="91.9596" cy="85.1861" rx="7.05236" ry="7.74272" fill="url(#paint11_linear_428_1183)"/>
</g>
<g filter="url(#filter5_d_428_1183)">
<ellipse cx="92.3589" cy="85.1864" rx="6.00486" ry="6.59269" fill="url(#paint12_linear_428_1183)"/>
</g>
<g filter="url(#filter6_d_428_1183)">
<ellipse cx="92.8995" cy="85.1859" rx="4.27694" ry="4.69562" fill="url(#paint13_linear_428_1183)"/>
</g>
<g filter="url(#filter7_di_428_1183)">
<path d="M42.8985 43.3591L41.6436 38.2085L44.9763 37.4727L46.5344 42.4501C45.1064 43.3654 44.3068 43.5202 42.8985 43.3591Z" fill="url(#paint14_linear_428_1183)"/>
</g>
<g filter="url(#filter8_i_428_1183)">
<ellipse cx="42.3996" cy="35.4357" rx="3.87376" ry="3.29119" fill="url(#paint15_linear_428_1183)"/>
</g>
<g style="mix-blend-mode:color-burn" opacity="0.6" filter="url(#filter9_f_428_1183)">
<ellipse cx="31.9395" cy="97.1845" rx="12.3949" ry="10.4564" transform="rotate(-29.5783 31.9395 97.1845)" fill="url(#paint16_radial_428_1183)"/>
</g>
<g style="mix-blend-mode:color-burn" opacity="0.5" filter="url(#filter10_f_428_1183)">
<ellipse cx="43.2354" cy="68.541" rx="10.0016" ry="14.0944" transform="rotate(-19.7692 43.2354 68.541)" fill="url(#paint17_radial_428_1183)"/>
</g>
<g style="mix-blend-mode:multiply" opacity="0.4" filter="url(#filter11_f_428_1183)">
<ellipse cx="66.9793" cy="112.969" rx="8.75256" ry="14.0944" transform="rotate(110.495 66.9793 112.969)" fill="url(#paint18_radial_428_1183)"/>
</g>
<g filter="url(#filter12_d_428_1183)">
<circle cx="82.045" cy="28.7124" r="23.7317" transform="rotate(5.00708 82.045 28.7124)" fill="#262B36"/>
<circle cx="82.045" cy="28.7124" r="22.7571" transform="rotate(5.00708 82.045 28.7124)" stroke="white" stroke-width="1.94928"/>
</g>
<path d="M70.8535 36.7223C70.2281 36.6675 69.766 36.4529 69.4671 36.0784C69.1682 35.704 69.0462 35.204 69.101 34.5786L70.3187 20.68C70.434 19.3634 71.1336 18.7613 72.4173 18.8738C73.6845 18.9848 74.2605 19.6986 74.1451 21.0153L72.9274 34.9139C72.8121 36.2305 72.1208 36.8333 70.8535 36.7223Z" fill="#F4FBFF"/>
<path d="M91.7041 38.5504C91.0787 38.4956 90.6166 38.281 90.3177 37.9065C90.0188 37.5321 89.8968 37.0322 89.9516 36.4068L91.1693 22.5081C91.2846 21.1915 91.9841 20.5894 93.2679 20.7019C94.5351 20.8129 95.1111 21.5268 94.9957 22.8434L93.778 36.742C93.6626 38.0586 92.9713 38.6614 91.7041 38.5504Z" fill="#F4FBFF"/>
<path fill-rule="evenodd" clip-rule="evenodd" d="M77.8985 22.4278C78.4252 21.7843 79.3739 21.6897 80.0174 22.2164L87.6649 28.4763C88.0577 28.7978 88.262 29.2956 88.2085 29.8004C88.1549 30.3052 87.8505 30.749 87.399 30.9809L78.8168 35.3881C78.0771 35.768 77.1694 35.4763 76.7896 34.7365C76.4097 33.9968 76.7014 33.0892 77.4411 32.7093L83.9798 29.3515L78.1099 24.5467C77.4664 24.02 77.3718 23.0713 77.8985 22.4278Z" fill="#F4FBFF"/>
<defs>
<filter id="filter0_di_428_1183" x="88.9445" y="30.0758" width="5.32969" height="9.20157" filterUnits="userSpaceOnUse" color-interpolation-filters="sRGB">
<feFlood flood-opacity="0" result="BackgroundImageFix"/>
<feColorMatrix in="SourceAlpha" type="matrix" values="0 0 0 0 0 0 0 0 0 0 0 0 0 0 0 0 0 0 127 0" result="hardAlpha"/>
<feMorphology radius="0.438284" operator="erode" in="SourceAlpha" result="effect1_dropShadow_428_1183"/>
<feOffset dy="-0.876568"/>
<feGaussianBlur stdDeviation="0.438284"/>
<feComposite in2="hardAlpha" operator="out"/>
<feColorMatrix type="matrix" values="0 0 0 0 0 0 0 0 0 0 0 0 0 0 0 0 0 0 0.15 0"/>
<feBlend mode="normal" in2="BackgroundImageFix" result="effect1_dropShadow_428_1183"/>
<feBlend mode="normal" in="SourceGraphic" in2="effect1_dropShadow_428_1183" result="shape"/>
<feColorMatrix in="SourceAlpha" type="matrix" values="0 0 0 0 0 0 0 0 0 0 0 0 0 0 0 0 0 0 127 0" result="hardAlpha"/>
<feOffset dx="0.438284" dy="-0.876568"/>
<feGaussianBlur stdDeviation="0.657426"/>
<feComposite in2="hardAlpha" operator="arithmetic" k2="-1" k3="1"/>
<feColorMatrix type="matrix" values="0 0 0 0 0 0 0 0 0 0 0 0 0 0 0 0 0 0 0.1 0"/>
<feBlend mode="normal" in2="shape" result="effect2_innerShadow_428_1183"/>
</filter>
<filter id="filter1_i_428_1183" x="88.9092" y="25.3488" width="8.17315" height="7.03594" filterUnits="userSpaceOnUse" color-interpolation-filters="sRGB">
<feFlood flood-opacity="0" result="BackgroundImageFix"/>
<feBlend mode="normal" in="SourceGraphic" in2="BackgroundImageFix" result="shape"/>
<feColorMatrix in="SourceAlpha" type="matrix" values="0 0 0 0 0 0 0 0 0 0 0 0 0 0 0 0 0 0 127 0" result="hardAlpha"/>
<feMorphology radius="0.438284" operator="erode" in="SourceAlpha" result="effect1_innerShadow_428_1183"/>
<feOffset dx="0.438284" dy="-0.438284"/>
<feGaussianBlur stdDeviation="0.876568"/>
<feComposite in2="hardAlpha" operator="arithmetic" k2="-1" k3="1"/>
<feColorMatrix type="matrix" values="0 0 0 0 0 0 0 0 0 0 0 0 0 0 0 0 0 0 0.15 0"/>
<feBlend mode="normal" in2="shape" result="effect1_innerShadow_428_1183"/>
</filter>
<filter id="filter2_di_428_1183" x="51.7009" y="34.857" width="52.3038" height="48.2406" filterUnits="userSpaceOnUse" color-interpolation-filters="sRGB">
<feFlood flood-opacity="0" result="BackgroundImageFix"/>
<feColorMatrix in="SourceAlpha" type="matrix" values="0 0 0 0 0 0 0 0 0 0 0 0 0 0 0 0 0 0 127 0" result="hardAlpha"/>
<feMorphology radius="0.438284" operator="erode" in="SourceAlpha" result="effect1_dropShadow_428_1183"/>
<feOffset dy="-0.876568"/>
<feGaussianBlur stdDeviation="0.438284"/>
<feComposite in2="hardAlpha" operator="out"/>
<feColorMatrix type="matrix" values="0 0 0 0 0 0 0 0 0 0 0 0 0 0 0 0 0 0 0.15 0"/>
<feBlend mode="normal" in2="BackgroundImageFix" result="effect1_dropShadow_428_1183"/>
<feBlend mode="normal" in="SourceGraphic" in2="effect1_dropShadow_428_1183" result="shape"/>
<feColorMatrix in="SourceAlpha" type="matrix" values="0 0 0 0 0 0 0 0 0 0 0 0 0 0 0 0 0 0 127 0" result="hardAlpha"/>
<feOffset dx="0.438284" dy="-0.876568"/>
<feGaussianBlur stdDeviation="0.657426"/>
<feComposite in2="hardAlpha" operator="arithmetic" k2="-1" k3="1"/>
<feColorMatrix type="matrix" values="0 0 0 0 0 0 0 0 0 0 0 0 0 0 0 0 0 0 0.1 0"/>
<feBlend mode="normal" in2="shape" result="effect2_innerShadow_428_1183"/>
</filter>
<filter id="filter3_di_428_1183" x="32.4641" y="37.859" width="57.1778" height="48.9438" filterUnits="userSpaceOnUse" color-interpolation-filters="sRGB">
<feFlood flood-opacity="0" result="BackgroundImageFix"/>
<feColorMatrix in="SourceAlpha" type="matrix" values="0 0 0 0 0 0 0 0 0 0 0 0 0 0 0 0 0 0 127 0" result="hardAlpha"/>
<feMorphology radius="0.438284" operator="erode" in="SourceAlpha" result="effect1_dropShadow_428_1183"/>
<feOffset dy="-0.876568"/>
<feGaussianBlur stdDeviation="0.438284"/>
<feComposite in2="hardAlpha" operator="out"/>
<feColorMatrix type="matrix" values="0 0 0 0 0 0 0 0 0 0 0 0 0 0 0 0 0 0 0.15 0"/>
<feBlend mode="normal" in2="BackgroundImageFix" result="effect1_dropShadow_428_1183"/>
<feBlend mode="normal" in="SourceGraphic" in2="effect1_dropShadow_428_1183" result="shape"/>
<feColorMatrix in="SourceAlpha" type="matrix" values="0 0 0 0 0 0 0 0 0 0 0 0 0 0 0 0 0 0 127 0" result="hardAlpha"/>
<feOffset dx="0.438284" dy="-0.876568"/>
<feGaussianBlur stdDeviation="0.657426"/>
<feComposite in2="hardAlpha" operator="arithmetic" k2="-1" k3="1"/>
<feColorMatrix type="matrix" values="0 0 0 0 0 0 0 0 0 0 0 0 0 0 0 0 0 0 0.1 0"/>
<feBlend mode="normal" in2="shape" result="effect2_innerShadow_428_1183"/>
</filter>
<filter id="filter4_d_428_1183" x="84.4689" y="76.1285" width="14.9811" height="16.8012" filterUnits="userSpaceOnUse" color-interpolation-filters="sRGB">
<feFlood flood-opacity="0" result="BackgroundImageFix"/>
<feColorMatrix in="SourceAlpha" type="matrix" values="0 0 0 0 0 0 0 0 0 0 0 0 0 0 0 0 0 0 127 0" result="hardAlpha"/>
<feMorphology radius="0.438284" operator="erode" in="SourceAlpha" result="effect1_dropShadow_428_1183"/>
<feOffset dy="-0.876568"/>
<feGaussianBlur stdDeviation="0.438284"/>
<feComposite in2="hardAlpha" operator="out"/>
<feColorMatrix type="matrix" values="0 0 0 0 0 0 0 0 0 0 0 0 0 0 0 0 0 0 0.15 0"/>
<feBlend mode="normal" in2="BackgroundImageFix" result="effect1_dropShadow_428_1183"/>
<feBlend mode="normal" in="SourceGraphic" in2="effect1_dropShadow_428_1183" result="shape"/>
</filter>
<filter id="filter5_d_428_1183" x="85.9157" y="77.2789" width="12.8863" height="14.5004" filterUnits="userSpaceOnUse" color-interpolation-filters="sRGB">
<feFlood flood-opacity="0" result="BackgroundImageFix"/>
<feColorMatrix in="SourceAlpha" type="matrix" values="0 0 0 0 0 0 0 0 0 0 0 0 0 0 0 0 0 0 127 0" result="hardAlpha"/>
<feMorphology radius="0.438284" operator="erode" in="SourceAlpha" result="effect1_dropShadow_428_1183"/>
<feOffset dy="-0.876568"/>
<feGaussianBlur stdDeviation="0.438284"/>
<feComposite in2="hardAlpha" operator="out"/>
<feColorMatrix type="matrix" values="0 0 0 0 0 0 0 0 0 0 0 0 0 0 0 0 0 0 0.15 0"/>
<feBlend mode="normal" in2="BackgroundImageFix" result="effect1_dropShadow_428_1183"/>
<feBlend mode="normal" in="SourceGraphic" in2="effect1_dropShadow_428_1183" result="shape"/>
</filter>
<filter id="filter6_d_428_1183" x="88.1843" y="79.1754" width="9.43028" height="10.7055" filterUnits="userSpaceOnUse" color-interpolation-filters="sRGB">
<feFlood flood-opacity="0" result="BackgroundImageFix"/>
<feColorMatrix in="SourceAlpha" type="matrix" values="0 0 0 0 0 0 0 0 0 0 0 0 0 0 0 0 0 0 127 0" result="hardAlpha"/>
<feMorphology radius="0.438284" operator="erode" in="SourceAlpha" result="effect1_dropShadow_428_1183"/>
<feOffset dy="-0.876568"/>
<feGaussianBlur stdDeviation="0.438284"/>
<feComposite in2="hardAlpha" operator="out"/>
<feColorMatrix type="matrix" values="0 0 0 0 0 0 0 0 0 0 0 0 0 0 0 0 0 0 0.15 0"/>
<feBlend mode="normal" in2="BackgroundImageFix" result="effect1_dropShadow_428_1183"/>
<feBlend mode="normal" in="SourceGraphic" in2="effect1_dropShadow_428_1183" result="shape"/>
</filter>
<filter id="filter7_di_428_1183" x="41.2053" y="36.1578" width="5.76768" height="7.25626" filterUnits="userSpaceOnUse" color-interpolation-filters="sRGB">
<feFlood flood-opacity="0" result="BackgroundImageFix"/>
<feColorMatrix in="SourceAlpha" type="matrix" values="0 0 0 0 0 0 0 0 0 0 0 0 0 0 0 0 0 0 127 0" result="hardAlpha"/>
<feMorphology radius="0.438284" operator="erode" in="SourceAlpha" result="effect1_dropShadow_428_1183"/>
<feOffset dy="-0.876568"/>
<feGaussianBlur stdDeviation="0.438284"/>
<feComposite in2="hardAlpha" operator="out"/>
<feColorMatrix type="matrix" values="0 0 0 0 0 0 0 0 0 0 0 0 0 0 0 0 0 0 0.15 0"/>
<feBlend mode="normal" in2="BackgroundImageFix" result="effect1_dropShadow_428_1183"/>
<feBlend mode="normal" in="SourceGraphic" in2="effect1_dropShadow_428_1183" result="shape"/>
<feColorMatrix in="SourceAlpha" type="matrix" values="0 0 0 0 0 0 0 0 0 0 0 0 0 0 0 0 0 0 127 0" result="hardAlpha"/>
<feOffset dx="0.438284" dy="-0.876568"/>
<feGaussianBlur stdDeviation="0.657426"/>
<feComposite in2="hardAlpha" operator="arithmetic" k2="-1" k3="1"/>
<feColorMatrix type="matrix" values="0 0 0 0 0 0 0 0 0 0 0 0 0 0 0 0 0 0 0.1 0"/>
<feBlend mode="normal" in2="shape" result="effect2_innerShadow_428_1183"/>
</filter>
<filter id="filter8_i_428_1183" x="38.5259" y="31.7062" width="8.18584" height="7.02032" filterUnits="userSpaceOnUse" color-interpolation-filters="sRGB">
<feFlood flood-opacity="0" result="BackgroundImageFix"/>
<feBlend mode="normal" in="SourceGraphic" in2="BackgroundImageFix" result="shape"/>
<feColorMatrix in="SourceAlpha" type="matrix" values="0 0 0 0 0 0 0 0 0 0 0 0 0 0 0 0 0 0 127 0" result="hardAlpha"/>
<feMorphology radius="0.438284" operator="erode" in="SourceAlpha" result="effect1_innerShadow_428_1183"/>
<feOffset dx="0.438284" dy="-0.438284"/>
<feGaussianBlur stdDeviation="0.876568"/>
<feComposite in2="hardAlpha" operator="arithmetic" k2="-1" k3="1"/>
<feColorMatrix type="matrix" values="0 0 0 0 0 0 0 0 0 0 0 0 0 0 0 0 0 0 0.15 0"/>
<feBlend mode="normal" in2="shape" result="effect1_innerShadow_428_1183"/>
</filter>
<filter id="filter9_f_428_1183" x="15.6025" y="81.8398" width="32.6744" height="30.6895" filterUnits="userSpaceOnUse" color-interpolation-filters="sRGB">
<feFlood flood-opacity="0" result="BackgroundImageFix"/>
<feBlend mode="normal" in="SourceGraphic" in2="BackgroundImageFix" result="shape"/>
<feGaussianBlur stdDeviation="2.19142" result="effect1_foregroundBlur_428_1183"/>
</filter>
<filter id="filter10_f_428_1183" x="28.2998" y="50.4668" width="29.8711" height="36.1485" filterUnits="userSpaceOnUse" color-interpolation-filters="sRGB">
<feFlood flood-opacity="0" result="BackgroundImageFix"/>
<feBlend mode="normal" in="SourceGraphic" in2="BackgroundImageFix" result="shape"/>
<feGaussianBlur stdDeviation="2.19142" result="effect1_foregroundBlur_428_1183"/>
</filter>
<filter id="filter11_f_428_1183" x="49.04" y="99.0156" width="35.8785" height="27.9063" filterUnits="userSpaceOnUse" color-interpolation-filters="sRGB">
<feFlood flood-opacity="0" result="BackgroundImageFix"/>
<feBlend mode="normal" in="SourceGraphic" in2="BackgroundImageFix" result="shape"/>
<feGaussianBlur stdDeviation="2.19142" result="effect1_foregroundBlur_428_1183"/>
</filter>
<filter id="filter12_d_428_1183" x="55.4657" y="4.97852" width="50.3126" height="48.4156" filterUnits="userSpaceOnUse" color-interpolation-filters="sRGB">
<feFlood flood-opacity="0" result="BackgroundImageFix"/>
<feColorMatrix in="SourceAlpha" type="matrix" values="0 0 0 0 0 0 0 0 0 0 0 0 0 0 0 0 0 0 127 0" result="hardAlpha"/>
<feOffset dx="-2.84632" dy="0.948772"/>
<feComposite in2="hardAlpha" operator="out"/>
<feColorMatrix type="matrix" values="0 0 0 0 1 0 0 0 0 1 0 0 0 0 1 0 0 0 1 0"/>
<feBlend mode="normal" in2="BackgroundImageFix" result="effect1_dropShadow_428_1183"/>
<feBlend mode="normal" in="SourceGraphic" in2="effect1_dropShadow_428_1183" result="shape"/>
</filter>
<linearGradient id="paint0_linear_428_1183" x1="93.578" y1="35.6856" x2="87.2888" y2="34.9779" gradientUnits="userSpaceOnUse">
<stop stop-color="white"/>
<stop offset="0.158673" stop-color="#567373"/>
<stop offset="0.653696" stop-color="#D3FFFF"/>
<stop offset="1" stop-color="#AED0D0"/>
</linearGradient>
<linearGradient id="paint1_linear_428_1183" x1="3.40069" y1="7.18504" x2="2.23198" y2="0.809975" gradientUnits="userSpaceOnUse">
<stop stop-color="#3C5F5F"/>
<stop offset="1" stop-color="#FBFFF8"/>
</linearGradient>
<linearGradient id="paint2_linear_428_1183" x1="68.4556" y1="37.248" x2="72.1134" y2="107.405" gradientUnits="userSpaceOnUse">
<stop stop-color="#4AA93A"/>
<stop offset="1"/>
</linearGradient>
<radialGradient id="paint3_radial_428_1183" cx="0" cy="0" r="1" gradientUnits="userSpaceOnUse" gradientTransform="translate(42.5432 116.616) rotate(-44.6021) scale(81.8211 175.267)">
<stop stop-color="#0E5A6F"/>
<stop offset="1" stop-color="#8CFF00" stop-opacity="0"/>
</radialGradient>
<radialGradient id="paint4_radial_428_1183" cx="0" cy="0" r="1" gradientUnits="userSpaceOnUse" gradientTransform="translate(50.3779 92.7905) rotate(0.98776) scale(46.3747 151.066)">
<stop stop-color="#0E5A6F"/>
<stop offset="1" stop-color="#8CFF00" stop-opacity="0"/>
</radialGradient>
<radialGradient id="paint5_radial_428_1183" cx="0" cy="0" r="1" gradientUnits="userSpaceOnUse" gradientTransform="translate(21.5979 76.4019) rotate(26.9436) scale(49.4014 272.779)">
<stop stop-color="#A8FFFF"/>
<stop offset="1" stop-color="#8CFF00" stop-opacity="0"/>
</radialGradient>
<radialGradient id="paint6_radial_428_1183" cx="0" cy="0" r="1" gradientUnits="userSpaceOnUse" gradientTransform="translate(105.142 95.0118) rotate(164.291) scale(29.5084 96.1237)">
<stop stop-color="#0E5A6F"/>
<stop offset="1" stop-color="#8CFF00" stop-opacity="0"/>
</radialGradient>
<radialGradient id="paint7_radial_428_1183" cx="0" cy="0" r="1" gradientUnits="userSpaceOnUse" gradientTransform="translate(109.877 86.7266) rotate(158.962) scale(16.4856 91.028)">
<stop stop-color="#A8FFFF"/>
<stop offset="1" stop-color="#8CFF00" stop-opacity="0"/>
</radialGradient>
<radialGradient id="paint8_radial_428_1183" cx="0" cy="0" r="1" gradientUnits="userSpaceOnUse" gradientTransform="translate(90.7556 104.563) rotate(-135.705) scale(35.0939 41.4292)">
<stop stop-color="#D8FFA9"/>
<stop offset="1" stop-color="#4AA93A" stop-opacity="0"/>
</radialGradient>
<linearGradient id="paint9_linear_428_1183" x1="50.3655" y1="47.2136" x2="102.149" y2="56.6987" gradientUnits="userSpaceOnUse">
<stop stop-color="#1B3636"/>
<stop offset="0.653696" stop-color="#D3FFFF"/>
<stop offset="1" stop-color="#249292"/>
</linearGradient>
<linearGradient id="paint10_linear_428_1183" x1="86.7646" y1="83.7134" x2="21.5463" y2="56.2567" gradientUnits="userSpaceOnUse">
<stop stop-color="#1B3636"/>
<stop offset="0.653696" stop-color="#D3FFFF"/>
<stop offset="1" stop-color="#AED0D0"/>
</linearGradient>
<linearGradient id="paint11_linear_428_1183" x1="83.9749" y1="82.9485" x2="99.012" y2="88.9531" gradientUnits="userSpaceOnUse">
<stop stop-color="#041B28"/>
<stop offset="1" stop-color="#E8E8E8"/>
</linearGradient>
<linearGradient id="paint12_linear_428_1183" x1="82.4711" y1="80.8746" x2="99.7719" y2="90.4545" gradientUnits="userSpaceOnUse">
<stop stop-color="#041B28"/>
<stop offset="1" stop-color="#E8E8E8"/>
</linearGradient>
<linearGradient id="paint13_linear_428_1183" x1="88.0237" y1="86.6587" x2="97.7432" y2="83.4979" gradientUnits="userSpaceOnUse">
<stop stop-color="#041B28"/>
<stop offset="1" stop-color="#E8E8E8"/>
</linearGradient>
<linearGradient id="paint14_linear_428_1183" x1="42.296" y1="40.8965" x2="46.9589" y2="39.6629" gradientUnits="userSpaceOnUse">
<stop stop-color="white"/>
<stop offset="0.107292" stop-color="#567373"/>
<stop offset="0.653696" stop-color="#D3FFFF"/>
<stop offset="1" stop-color="#AED0D0"/>
</linearGradient>
<linearGradient id="paint15_linear_428_1183" x1="41.9266" y1="39.3296" x2="40.7579" y2="32.9545" gradientUnits="userSpaceOnUse">
<stop stop-color="#3C5F5F"/>
<stop offset="1" stop-color="#FBFFF8"/>
</linearGradient>
<radialGradient id="paint16_radial_428_1183" cx="0" cy="0" r="1" gradientUnits="userSpaceOnUse" gradientTransform="translate(26.2798 88.6032) rotate(85.6848) scale(20.5132 24.2945)">
<stop stop-color="#25785B"/>
<stop offset="1" stop-color="#57B169" stop-opacity="0"/>
</radialGradient>
<radialGradient id="paint17_radial_428_1183" cx="0" cy="0" r="1" gradientUnits="userSpaceOnUse" gradientTransform="translate(38.6685 56.9741) rotate(87.4137) scale(27.5999 19.6392)">
<stop stop-color="#25785B"/>
<stop offset="1" stop-color="#57B169" stop-opacity="0"/>
</radialGradient>
<radialGradient id="paint18_radial_428_1183" cx="0" cy="0" r="1" gradientUnits="userSpaceOnUse" gradientTransform="translate(62.9827 101.402) rotate(87.7363) scale(27.5933 17.1908)">
<stop stop-color="#25785B"/>
<stop offset="1" stop-color="#57B169" stop-opacity="0"/>
</radialGradient>
</defs>
</svg>
