<svg width="86" height="86" viewBox="0 0 86 86" fill="none" xmlns="http://www.w3.org/2000/svg">
<circle cx="43.2585" cy="42.7227" r="42.5" fill="#0A1734"/>
<circle cx="43.2585" cy="42.7227" r="42.5" fill="url(#paint0_radial_386_1119)"/>
<circle cx="43.2585" cy="42.7227" r="42.5" fill="url(#paint1_radial_386_1119)"/>
<circle cx="43.2585" cy="42.7227" r="42.5" fill="url(#paint2_radial_386_1119)"/>
<circle cx="43.2585" cy="42.7227" r="42.5" fill="url(#paint3_diamond_386_1119)" fill-opacity="0.8"/>
<path d="M40.5558 9.52717C41.981 7.87982 44.5359 7.87982 45.9612 9.52717L46.2396 9.84893C47.7807 11.6301 50.5296 11.6713 52.1233 9.93693L52.5416 9.48172C55.6672 6.08024 61.2596 9.13927 60.0813 13.606L59.1736 17.047C58.4615 19.7465 61.447 21.9066 63.7883 20.3858L64.4242 19.9728C66.2783 18.7685 68.7101 20.2047 68.5507 22.4097V22.4097C68.4216 24.1967 70.0508 25.6033 71.7999 25.2148L74.1776 24.6867C78.7825 23.6638 81.6472 29.5253 78.0111 32.5301L76.2867 33.9551C74.4559 35.468 74.4243 38.2636 76.2204 39.8175V39.8175C77.9899 41.3485 77.9899 44.0929 76.2204 45.6239L75.5184 46.2312C73.912 47.6211 73.4539 49.924 74.4062 51.8227L74.671 52.3508C75.7997 54.6015 74.6696 57.3298 72.28 58.1232L71.3445 58.4338C69.667 58.9907 68.7718 60.8147 69.3574 62.4824V62.4824C70.3913 65.4267 66.9878 67.93 64.4852 66.066L62.5197 64.6021C59.8237 62.594 56.018 64.6985 56.2856 68.0496L56.6545 72.6713C56.8413 75.0107 54.1173 76.4185 52.317 74.9129V74.9129C50.8322 73.6711 48.5602 74.3905 48.0608 76.2607L47.3982 78.7415C46.2661 82.9805 40.2508 82.9805 39.1187 78.7415L38.578 76.717C37.9623 74.4113 35.3846 73.2525 33.2513 74.3223V74.3223C31.1995 75.3513 28.7122 74.3211 27.9889 72.1426L27.6699 71.1816C27.0006 69.1656 25.0483 67.8611 22.9296 68.0142V68.0142C20.1076 68.2182 17.761 65.8717 17.965 63.0496V63.0496C18.1181 60.9309 16.8136 58.9786 14.7977 58.3093L11.1352 57.0934C10.1886 56.7791 9.30015 56.3112 8.50547 55.7084L8.07695 55.3834C4.34128 52.5498 3.58511 47.2361 6.38207 43.4729V43.4729C6.75365 42.9729 7.17877 42.5151 7.64984 42.1075L10.9409 39.2601C12.565 37.855 12.9787 35.5023 11.9314 33.6274L10.2892 30.6873C9.00313 28.3849 11.06 25.6498 13.6288 26.2464V26.2464C16.66 26.9503 18.6638 23.1832 16.3859 21.0631L14.4094 19.2236C11.1284 16.1698 14.9858 10.9698 18.86 13.2239L19.7775 13.7577C22.5485 15.37 25.9676 13.1137 25.575 9.93195L25.4942 9.27664C24.9428 4.80772 30.8521 2.7162 33.2348 6.53699L34.8205 9.07989C36.094 11.1221 38.9811 11.3472 40.5558 9.52717V9.52717Z" fill="#0A1734"/>
<path d="M40.5558 9.52717C41.981 7.87982 44.5359 7.87982 45.9612 9.52717L46.2396 9.84893C47.7807 11.6301 50.5296 11.6713 52.1233 9.93693L52.5416 9.48172C55.6672 6.08024 61.2596 9.13927 60.0813 13.606L59.1736 17.047C58.4615 19.7465 61.447 21.9066 63.7883 20.3858L64.4242 19.9728C66.2783 18.7685 68.7101 20.2047 68.5507 22.4097V22.4097C68.4216 24.1967 70.0508 25.6033 71.7999 25.2148L74.1776 24.6867C78.7825 23.6638 81.6472 29.5253 78.0111 32.5301L76.2867 33.9551C74.4559 35.468 74.4243 38.2636 76.2204 39.8175V39.8175C77.9899 41.3485 77.9899 44.0929 76.2204 45.6239L75.5184 46.2312C73.912 47.6211 73.4539 49.924 74.4062 51.8227L74.671 52.3508C75.7997 54.6015 74.6696 57.3298 72.28 58.1232L71.3445 58.4338C69.667 58.9907 68.7718 60.8147 69.3574 62.4824V62.4824C70.3913 65.4267 66.9878 67.93 64.4852 66.066L62.5197 64.6021C59.8237 62.594 56.018 64.6985 56.2856 68.0496L56.6545 72.6713C56.8413 75.0107 54.1173 76.4185 52.317 74.9129V74.9129C50.8322 73.6711 48.5602 74.3905 48.0608 76.2607L47.3982 78.7415C46.2661 82.9805 40.2508 82.9805 39.1187 78.7415L38.578 76.717C37.9623 74.4113 35.3846 73.2525 33.2513 74.3223V74.3223C31.1995 75.3513 28.7122 74.3211 27.9889 72.1426L27.6699 71.1816C27.0006 69.1656 25.0483 67.8611 22.9296 68.0142V68.0142C20.1076 68.2182 17.761 65.8717 17.965 63.0496V63.0496C18.1181 60.9309 16.8136 58.9786 14.7977 58.3093L11.1352 57.0934C10.1886 56.7791 9.30015 56.3112 8.50547 55.7084L8.07695 55.3834C4.34128 52.5498 3.58511 47.2361 6.38207 43.4729V43.4729C6.75365 42.9729 7.17877 42.5151 7.64984 42.1075L10.9409 39.2601C12.565 37.855 12.9787 35.5023 11.9314 33.6274L10.2892 30.6873C9.00313 28.3849 11.06 25.6498 13.6288 26.2464V26.2464C16.66 26.9503 18.6638 23.1832 16.3859 21.0631L14.4094 19.2236C11.1284 16.1698 14.9858 10.9698 18.86 13.2239L19.7775 13.7577C22.5485 15.37 25.9676 13.1137 25.575 9.93195L25.4942 9.27664C24.9428 4.80772 30.8521 2.7162 33.2348 6.53699L34.8205 9.07989C36.094 11.1221 38.9811 11.3472 40.5558 9.52717V9.52717Z" fill="url(#paint4_radial_386_1119)"/>
<path d="M40.5558 9.52717C41.981 7.87982 44.5359 7.87982 45.9612 9.52717L46.2396 9.84893C47.7807 11.6301 50.5296 11.6713 52.1233 9.93693L52.5416 9.48172C55.6672 6.08024 61.2596 9.13927 60.0813 13.606L59.1736 17.047C58.4615 19.7465 61.447 21.9066 63.7883 20.3858L64.4242 19.9728C66.2783 18.7685 68.7101 20.2047 68.5507 22.4097V22.4097C68.4216 24.1967 70.0508 25.6033 71.7999 25.2148L74.1776 24.6867C78.7825 23.6638 81.6472 29.5253 78.0111 32.5301L76.2867 33.9551C74.4559 35.468 74.4243 38.2636 76.2204 39.8175V39.8175C77.9899 41.3485 77.9899 44.0929 76.2204 45.6239L75.5184 46.2312C73.912 47.6211 73.4539 49.924 74.4062 51.8227L74.671 52.3508C75.7997 54.6015 74.6696 57.3298 72.28 58.1232L71.3445 58.4338C69.667 58.9907 68.7718 60.8147 69.3574 62.4824V62.4824C70.3913 65.4267 66.9878 67.93 64.4852 66.066L62.5197 64.6021C59.8237 62.594 56.018 64.6985 56.2856 68.0496L56.6545 72.6713C56.8413 75.0107 54.1173 76.4185 52.317 74.9129V74.9129C50.8322 73.6711 48.5602 74.3905 48.0608 76.2607L47.3982 78.7415C46.2661 82.9805 40.2508 82.9805 39.1187 78.7415L38.578 76.717C37.9623 74.4113 35.3846 73.2525 33.2513 74.3223V74.3223C31.1995 75.3513 28.7122 74.3211 27.9889 72.1426L27.6699 71.1816C27.0006 69.1656 25.0483 67.8611 22.9296 68.0142V68.0142C20.1076 68.2182 17.761 65.8717 17.965 63.0496V63.0496C18.1181 60.9309 16.8136 58.9786 14.7977 58.3093L11.1352 57.0934C10.1886 56.7791 9.30015 56.3112 8.50547 55.7084L8.07695 55.3834C4.34128 52.5498 3.58511 47.2361 6.38207 43.4729V43.4729C6.75365 42.9729 7.17877 42.5151 7.64984 42.1075L10.9409 39.2601C12.565 37.855 12.9787 35.5023 11.9314 33.6274L10.2892 30.6873C9.00313 28.3849 11.06 25.6498 13.6288 26.2464V26.2464C16.66 26.9503 18.6638 23.1832 16.3859 21.0631L14.4094 19.2236C11.1284 16.1698 14.9858 10.9698 18.86 13.2239L19.7775 13.7577C22.5485 15.37 25.9676 13.1137 25.575 9.93195L25.4942 9.27664C24.9428 4.80772 30.8521 2.7162 33.2348 6.53699L34.8205 9.07989C36.094 11.1221 38.9811 11.3472 40.5558 9.52717V9.52717Z" fill="url(#paint5_radial_386_1119)"/>
<path d="M40.5558 9.52717C41.981 7.87982 44.5359 7.87982 45.9612 9.52717L46.2396 9.84893C47.7807 11.6301 50.5296 11.6713 52.1233 9.93693L52.5416 9.48172C55.6672 6.08024 61.2596 9.13927 60.0813 13.606L59.1736 17.047C58.4615 19.7465 61.447 21.9066 63.7883 20.3858L64.4242 19.9728C66.2783 18.7685 68.7101 20.2047 68.5507 22.4097V22.4097C68.4216 24.1967 70.0508 25.6033 71.7999 25.2148L74.1776 24.6867C78.7825 23.6638 81.6472 29.5253 78.0111 32.5301L76.2867 33.9551C74.4559 35.468 74.4243 38.2636 76.2204 39.8175V39.8175C77.9899 41.3485 77.9899 44.0929 76.2204 45.6239L75.5184 46.2312C73.912 47.6211 73.4539 49.924 74.4062 51.8227L74.671 52.3508C75.7997 54.6015 74.6696 57.3298 72.28 58.1232L71.3445 58.4338C69.667 58.9907 68.7718 60.8147 69.3574 62.4824V62.4824C70.3913 65.4267 66.9878 67.93 64.4852 66.066L62.5197 64.6021C59.8237 62.594 56.018 64.6985 56.2856 68.0496L56.6545 72.6713C56.8413 75.0107 54.1173 76.4185 52.317 74.9129V74.9129C50.8322 73.6711 48.5602 74.3905 48.0608 76.2607L47.3982 78.7415C46.2661 82.9805 40.2508 82.9805 39.1187 78.7415L38.578 76.717C37.9623 74.4113 35.3846 73.2525 33.2513 74.3223V74.3223C31.1995 75.3513 28.7122 74.3211 27.9889 72.1426L27.6699 71.1816C27.0006 69.1656 25.0483 67.8611 22.9296 68.0142V68.0142C20.1076 68.2182 17.761 65.8717 17.965 63.0496V63.0496C18.1181 60.9309 16.8136 58.9786 14.7977 58.3093L11.1352 57.0934C10.1886 56.7791 9.30015 56.3112 8.50547 55.7084L8.07695 55.3834C4.34128 52.5498 3.58511 47.2361 6.38207 43.4729V43.4729C6.75365 42.9729 7.17877 42.5151 7.64984 42.1075L10.9409 39.2601C12.565 37.855 12.9787 35.5023 11.9314 33.6274L10.2892 30.6873C9.00313 28.3849 11.06 25.6498 13.6288 26.2464V26.2464C16.66 26.9503 18.6638 23.1832 16.3859 21.0631L14.4094 19.2236C11.1284 16.1698 14.9858 10.9698 18.86 13.2239L19.7775 13.7577C22.5485 15.37 25.9676 13.1137 25.575 9.93195L25.4942 9.27664C24.9428 4.80772 30.8521 2.7162 33.2348 6.53699L34.8205 9.07989C36.094 11.1221 38.9811 11.3472 40.5558 9.52717V9.52717Z" fill="url(#paint6_radial_386_1119)"/>
<path d="M40.5558 9.52717C41.981 7.87982 44.5359 7.87982 45.9612 9.52717L46.2396 9.84893C47.7807 11.6301 50.5296 11.6713 52.1233 9.93693L52.5416 9.48172C55.6672 6.08024 61.2596 9.13927 60.0813 13.606L59.1736 17.047C58.4615 19.7465 61.447 21.9066 63.7883 20.3858L64.4242 19.9728C66.2783 18.7685 68.7101 20.2047 68.5507 22.4097V22.4097C68.4216 24.1967 70.0508 25.6033 71.7999 25.2148L74.1776 24.6867C78.7825 23.6638 81.6472 29.5253 78.0111 32.5301L76.2867 33.9551C74.4559 35.468 74.4243 38.2636 76.2204 39.8175V39.8175C77.9899 41.3485 77.9899 44.0929 76.2204 45.6239L75.5184 46.2312C73.912 47.6211 73.4539 49.924 74.4062 51.8227L74.671 52.3508C75.7997 54.6015 74.6696 57.3298 72.28 58.1232L71.3445 58.4338C69.667 58.9907 68.7718 60.8147 69.3574 62.4824V62.4824C70.3913 65.4267 66.9878 67.93 64.4852 66.066L62.5197 64.6021C59.8237 62.594 56.018 64.6985 56.2856 68.0496L56.6545 72.6713C56.8413 75.0107 54.1173 76.4185 52.317 74.9129V74.9129C50.8322 73.6711 48.5602 74.3905 48.0608 76.2607L47.3982 78.7415C46.2661 82.9805 40.2508 82.9805 39.1187 78.7415L38.578 76.717C37.9623 74.4113 35.3846 73.2525 33.2513 74.3223V74.3223C31.1995 75.3513 28.7122 74.3211 27.9889 72.1426L27.6699 71.1816C27.0006 69.1656 25.0483 67.8611 22.9296 68.0142V68.0142C20.1076 68.2182 17.761 65.8717 17.965 63.0496V63.0496C18.1181 60.9309 16.8136 58.9786 14.7977 58.3093L11.1352 57.0934C10.1886 56.7791 9.30015 56.3112 8.50547 55.7084L8.07695 55.3834C4.34128 52.5498 3.58511 47.2361 6.38207 43.4729V43.4729C6.75365 42.9729 7.17877 42.5151 7.64984 42.1075L10.9409 39.2601C12.565 37.855 12.9787 35.5023 11.9314 33.6274L10.2892 30.6873C9.00313 28.3849 11.06 25.6498 13.6288 26.2464V26.2464C16.66 26.9503 18.6638 23.1832 16.3859 21.0631L14.4094 19.2236C11.1284 16.1698 14.9858 10.9698 18.86 13.2239L19.7775 13.7577C22.5485 15.37 25.9676 13.1137 25.575 9.93195L25.4942 9.27664C24.9428 4.80772 30.8521 2.7162 33.2348 6.53699L34.8205 9.07989C36.094 11.1221 38.9811 11.3472 40.5558 9.52717V9.52717Z" fill="url(#paint7_diamond_386_1119)" fill-opacity="0.8"/>
<circle cx="43.2585" cy="42.3135" r="24.835" fill="#0A1734"/>
<circle cx="43.2585" cy="42.3135" r="24.835" fill="url(#paint8_radial_386_1119)"/>
<circle cx="43.2585" cy="42.3135" r="24.835" fill="url(#paint9_radial_386_1119)"/>
<circle cx="43.2585" cy="42.3135" r="24.835" fill="url(#paint10_radial_386_1119)"/>
<circle cx="43.2585" cy="42.3135" r="24.835" fill="url(#paint11_diamond_386_1119)" fill-opacity="0.8"/>
<path d="M40.8005 24.3762C41.5803 23.4749 42.9781 23.4749 43.7579 24.3762L43.9102 24.5523C44.7533 25.5268 46.2573 25.5493 47.1292 24.6004L47.3581 24.3513C49.0682 22.4904 52.1278 24.164 51.4831 26.6078L50.9865 28.4904C50.5969 29.9673 52.2303 31.1491 53.5113 30.3171L53.8592 30.0911C54.8736 29.4323 56.204 30.218 56.1168 31.4244V31.4244C56.0462 32.4021 56.9376 33.1716 57.8945 32.9591L59.1954 32.6701C61.7147 32.1105 63.282 35.3174 61.2927 36.9614L60.3493 37.741C59.3476 38.5687 59.3303 40.0982 60.313 40.9484V40.9484C61.2811 41.786 61.2811 43.2875 60.313 44.1251L59.9289 44.4574C59.05 45.2178 58.7994 46.4777 59.3204 47.5165L59.4653 47.8054C60.0828 49.0368 59.4646 50.5295 58.1572 50.9636L57.6454 51.1335C56.7276 51.4382 56.2378 52.4361 56.5582 53.3485V53.3485C57.1238 54.9594 55.2618 56.3289 53.8925 55.3091L52.8172 54.5082C51.3422 53.4096 49.2601 54.561 49.4064 56.3944L49.6083 58.923C49.7105 60.2029 48.2202 60.9731 47.2352 60.1494V60.1494C46.4229 59.47 45.1798 59.8636 44.9066 60.8867L44.5441 62.244C43.9247 64.5632 40.6337 64.5632 40.0143 62.244L39.7185 61.1364C39.3816 59.875 37.9713 59.241 36.8042 59.8263V59.8263C35.6816 60.3892 34.3208 59.8256 33.9251 58.6337L33.7505 58.1079C33.3844 57.005 32.3162 56.2913 31.1571 56.375V56.375C29.6131 56.4866 28.3293 55.2028 28.4409 53.6588V53.6588C28.5247 52.4997 27.811 51.4316 26.708 51.0654L24.7043 50.4002C24.1864 50.2282 23.7003 49.9722 23.2655 49.6424L23.0311 49.4646C20.9872 47.9143 20.5735 45.0071 22.1038 42.9482V42.9482C22.3071 42.6747 22.5397 42.4242 22.7974 42.2012L24.5979 40.6434C25.4865 39.8746 25.7129 38.5875 25.1399 37.5617L24.2414 35.9531C23.5378 34.6935 24.6631 33.1971 26.0685 33.5234V33.5234C27.7269 33.9086 28.8232 31.8476 27.5769 30.6876L26.4956 29.6812C24.7005 28.0105 26.8109 25.1655 28.9306 26.3988L29.4325 26.6908C30.9486 27.5729 32.8192 26.3385 32.6044 24.5977L32.5602 24.2392C32.2585 21.7942 35.4916 20.6499 36.7951 22.7403L37.6627 24.1315C38.3595 25.2488 39.939 25.372 40.8005 24.3762V24.3762Z" fill="#0A1734"/>
<path d="M40.8005 24.3762C41.5803 23.4749 42.9781 23.4749 43.7579 24.3762L43.9102 24.5523C44.7533 25.5268 46.2573 25.5493 47.1292 24.6004L47.3581 24.3513C49.0682 22.4904 52.1278 24.164 51.4831 26.6078L50.9865 28.4904C50.5969 29.9673 52.2303 31.1491 53.5113 30.3171L53.8592 30.0911C54.8736 29.4323 56.204 30.218 56.1168 31.4244V31.4244C56.0462 32.4021 56.9376 33.1716 57.8945 32.9591L59.1954 32.6701C61.7147 32.1105 63.282 35.3174 61.2927 36.9614L60.3493 37.741C59.3476 38.5687 59.3303 40.0982 60.313 40.9484V40.9484C61.2811 41.786 61.2811 43.2875 60.313 44.1251L59.9289 44.4574C59.05 45.2178 58.7994 46.4777 59.3204 47.5165L59.4653 47.8054C60.0828 49.0368 59.4646 50.5295 58.1572 50.9636L57.6454 51.1335C56.7276 51.4382 56.2378 52.4361 56.5582 53.3485V53.3485C57.1238 54.9594 55.2618 56.3289 53.8925 55.3091L52.8172 54.5082C51.3422 53.4096 49.2601 54.561 49.4064 56.3944L49.6083 58.923C49.7105 60.2029 48.2202 60.9731 47.2352 60.1494V60.1494C46.4229 59.47 45.1798 59.8636 44.9066 60.8867L44.5441 62.244C43.9247 64.5632 40.6337 64.5632 40.0143 62.244L39.7185 61.1364C39.3816 59.875 37.9713 59.241 36.8042 59.8263V59.8263C35.6816 60.3892 34.3208 59.8256 33.9251 58.6337L33.7505 58.1079C33.3844 57.005 32.3162 56.2913 31.1571 56.375V56.375C29.6131 56.4866 28.3293 55.2028 28.4409 53.6588V53.6588C28.5247 52.4997 27.811 51.4316 26.708 51.0654L24.7043 50.4002C24.1864 50.2282 23.7003 49.9722 23.2655 49.6424L23.0311 49.4646C20.9872 47.9143 20.5735 45.0071 22.1038 42.9482V42.9482C22.3071 42.6747 22.5397 42.4242 22.7974 42.2012L24.5979 40.6434C25.4865 39.8746 25.7129 38.5875 25.1399 37.5617L24.2414 35.9531C23.5378 34.6935 24.6631 33.1971 26.0685 33.5234V33.5234C27.7269 33.9086 28.8232 31.8476 27.5769 30.6876L26.4956 29.6812C24.7005 28.0105 26.8109 25.1655 28.9306 26.3988L29.4325 26.6908C30.9486 27.5729 32.8192 26.3385 32.6044 24.5977L32.5602 24.2392C32.2585 21.7942 35.4916 20.6499 36.7951 22.7403L37.6627 24.1315C38.3595 25.2488 39.939 25.372 40.8005 24.3762V24.3762Z" fill="url(#paint12_radial_386_1119)"/>
<path d="M40.8005 24.3762C41.5803 23.4749 42.9781 23.4749 43.7579 24.3762L43.9102 24.5523C44.7533 25.5268 46.2573 25.5493 47.1292 24.6004L47.3581 24.3513C49.0682 22.4904 52.1278 24.164 51.4831 26.6078L50.9865 28.4904C50.5969 29.9673 52.2303 31.1491 53.5113 30.3171L53.8592 30.0911C54.8736 29.4323 56.204 30.218 56.1168 31.4244V31.4244C56.0462 32.4021 56.9376 33.1716 57.8945 32.9591L59.1954 32.6701C61.7147 32.1105 63.282 35.3174 61.2927 36.9614L60.3493 37.741C59.3476 38.5687 59.3303 40.0982 60.313 40.9484V40.9484C61.2811 41.786 61.2811 43.2875 60.313 44.1251L59.9289 44.4574C59.05 45.2178 58.7994 46.4777 59.3204 47.5165L59.4653 47.8054C60.0828 49.0368 59.4646 50.5295 58.1572 50.9636L57.6454 51.1335C56.7276 51.4382 56.2378 52.4361 56.5582 53.3485V53.3485C57.1238 54.9594 55.2618 56.3289 53.8925 55.3091L52.8172 54.5082C51.3422 53.4096 49.2601 54.561 49.4064 56.3944L49.6083 58.923C49.7105 60.2029 48.2202 60.9731 47.2352 60.1494V60.1494C46.4229 59.47 45.1798 59.8636 44.9066 60.8867L44.5441 62.244C43.9247 64.5632 40.6337 64.5632 40.0143 62.244L39.7185 61.1364C39.3816 59.875 37.9713 59.241 36.8042 59.8263V59.8263C35.6816 60.3892 34.3208 59.8256 33.9251 58.6337L33.7505 58.1079C33.3844 57.005 32.3162 56.2913 31.1571 56.375V56.375C29.6131 56.4866 28.3293 55.2028 28.4409 53.6588V53.6588C28.5247 52.4997 27.811 51.4316 26.708 51.0654L24.7043 50.4002C24.1864 50.2282 23.7003 49.9722 23.2655 49.6424L23.0311 49.4646C20.9872 47.9143 20.5735 45.0071 22.1038 42.9482V42.9482C22.3071 42.6747 22.5397 42.4242 22.7974 42.2012L24.5979 40.6434C25.4865 39.8746 25.7129 38.5875 25.1399 37.5617L24.2414 35.9531C23.5378 34.6935 24.6631 33.1971 26.0685 33.5234V33.5234C27.7269 33.9086 28.8232 31.8476 27.5769 30.6876L26.4956 29.6812C24.7005 28.0105 26.8109 25.1655 28.9306 26.3988L29.4325 26.6908C30.9486 27.5729 32.8192 26.3385 32.6044 24.5977L32.5602 24.2392C32.2585 21.7942 35.4916 20.6499 36.7951 22.7403L37.6627 24.1315C38.3595 25.2488 39.939 25.372 40.8005 24.3762V24.3762Z" fill="url(#paint13_radial_386_1119)"/>
<path d="M40.8005 24.3762C41.5803 23.4749 42.9781 23.4749 43.7579 24.3762L43.9102 24.5523C44.7533 25.5268 46.2573 25.5493 47.1292 24.6004L47.3581 24.3513C49.0682 22.4904 52.1278 24.164 51.4831 26.6078L50.9865 28.4904C50.5969 29.9673 52.2303 31.1491 53.5113 30.3171L53.8592 30.0911C54.8736 29.4323 56.204 30.218 56.1168 31.4244V31.4244C56.0462 32.4021 56.9376 33.1716 57.8945 32.9591L59.1954 32.6701C61.7147 32.1105 63.282 35.3174 61.2927 36.9614L60.3493 37.741C59.3476 38.5687 59.3303 40.0982 60.313 40.9484V40.9484C61.2811 41.786 61.2811 43.2875 60.313 44.1251L59.9289 44.4574C59.05 45.2178 58.7994 46.4777 59.3204 47.5165L59.4653 47.8054C60.0828 49.0368 59.4646 50.5295 58.1572 50.9636L57.6454 51.1335C56.7276 51.4382 56.2378 52.4361 56.5582 53.3485V53.3485C57.1238 54.9594 55.2618 56.3289 53.8925 55.3091L52.8172 54.5082C51.3422 53.4096 49.2601 54.561 49.4064 56.3944L49.6083 58.923C49.7105 60.2029 48.2202 60.9731 47.2352 60.1494V60.1494C46.4229 59.47 45.1798 59.8636 44.9066 60.8867L44.5441 62.244C43.9247 64.5632 40.6337 64.5632 40.0143 62.244L39.7185 61.1364C39.3816 59.875 37.9713 59.241 36.8042 59.8263V59.8263C35.6816 60.3892 34.3208 59.8256 33.9251 58.6337L33.7505 58.1079C33.3844 57.005 32.3162 56.2913 31.1571 56.375V56.375C29.6131 56.4866 28.3293 55.2028 28.4409 53.6588V53.6588C28.5247 52.4997 27.811 51.4316 26.708 51.0654L24.7043 50.4002C24.1864 50.2282 23.7003 49.9722 23.2655 49.6424L23.0311 49.4646C20.9872 47.9143 20.5735 45.0071 22.1038 42.9482V42.9482C22.3071 42.6747 22.5397 42.4242 22.7974 42.2012L24.5979 40.6434C25.4865 39.8746 25.7129 38.5875 25.1399 37.5617L24.2414 35.9531C23.5378 34.6935 24.6631 33.1971 26.0685 33.5234V33.5234C27.7269 33.9086 28.8232 31.8476 27.5769 30.6876L26.4956 29.6812C24.7005 28.0105 26.8109 25.1655 28.9306 26.3988L29.4325 26.6908C30.9486 27.5729 32.8192 26.3385 32.6044 24.5977L32.5602 24.2392C32.2585 21.7942 35.4916 20.6499 36.7951 22.7403L37.6627 24.1315C38.3595 25.2488 39.939 25.372 40.8005 24.3762V24.3762Z" fill="url(#paint14_radial_386_1119)"/>
<path d="M40.8005 24.3762C41.5803 23.4749 42.9781 23.4749 43.7579 24.3762L43.9102 24.5523C44.7533 25.5268 46.2573 25.5493 47.1292 24.6004L47.3581 24.3513C49.0682 22.4904 52.1278 24.164 51.4831 26.6078L50.9865 28.4904C50.5969 29.9673 52.2303 31.1491 53.5113 30.3171L53.8592 30.0911C54.8736 29.4323 56.204 30.218 56.1168 31.4244V31.4244C56.0462 32.4021 56.9376 33.1716 57.8945 32.9591L59.1954 32.6701C61.7147 32.1105 63.282 35.3174 61.2927 36.9614L60.3493 37.741C59.3476 38.5687 59.3303 40.0982 60.313 40.9484V40.9484C61.2811 41.786 61.2811 43.2875 60.313 44.1251L59.9289 44.4574C59.05 45.2178 58.7994 46.4777 59.3204 47.5165L59.4653 47.8054C60.0828 49.0368 59.4646 50.5295 58.1572 50.9636L57.6454 51.1335C56.7276 51.4382 56.2378 52.4361 56.5582 53.3485V53.3485C57.1238 54.9594 55.2618 56.3289 53.8925 55.3091L52.8172 54.5082C51.3422 53.4096 49.2601 54.561 49.4064 56.3944L49.6083 58.923C49.7105 60.2029 48.2202 60.9731 47.2352 60.1494V60.1494C46.4229 59.47 45.1798 59.8636 44.9066 60.8867L44.5441 62.244C43.9247 64.5632 40.6337 64.5632 40.0143 62.244L39.7185 61.1364C39.3816 59.875 37.9713 59.241 36.8042 59.8263V59.8263C35.6816 60.3892 34.3208 59.8256 33.9251 58.6337L33.7505 58.1079C33.3844 57.005 32.3162 56.2913 31.1571 56.375V56.375C29.6131 56.4866 28.3293 55.2028 28.4409 53.6588V53.6588C28.5247 52.4997 27.811 51.4316 26.708 51.0654L24.7043 50.4002C24.1864 50.2282 23.7003 49.9722 23.2655 49.6424L23.0311 49.4646C20.9872 47.9143 20.5735 45.0071 22.1038 42.9482V42.9482C22.3071 42.6747 22.5397 42.4242 22.7974 42.2012L24.5979 40.6434C25.4865 39.8746 25.7129 38.5875 25.1399 37.5617L24.2414 35.9531C23.5378 34.6935 24.6631 33.1971 26.0685 33.5234V33.5234C27.7269 33.9086 28.8232 31.8476 27.5769 30.6876L26.4956 29.6812C24.7005 28.0105 26.8109 25.1655 28.9306 26.3988L29.4325 26.6908C30.9486 27.5729 32.8192 26.3385 32.6044 24.5977L32.5602 24.2392C32.2585 21.7942 35.4916 20.6499 36.7951 22.7403L37.6627 24.1315C38.3595 25.2488 39.939 25.372 40.8005 24.3762V24.3762Z" fill="url(#paint15_diamond_386_1119)" fill-opacity="0.8"/>
<circle cx="42.2796" cy="42.314" r="13.5874" fill="#0A1734"/>
<circle cx="42.2796" cy="42.314" r="13.5874" fill="url(#paint16_radial_386_1119)"/>
<circle cx="42.2796" cy="42.314" r="13.5874" fill="url(#paint17_radial_386_1119)"/>
<circle cx="42.2796" cy="42.314" r="13.5874" fill="url(#paint18_radial_386_1119)"/>
<circle cx="42.2796" cy="42.314" r="13.5874" fill="url(#paint19_diamond_386_1119)" fill-opacity="0.8"/>
<defs>
<radialGradient id="paint0_radial_386_1119" cx="0" cy="0" r="1" gradientUnits="userSpaceOnUse" gradientTransform="translate(43.2585 37.8771) rotate(90) scale(42.9353 39.6659)">
<stop offset="0.857292" stop-color="#141F45" stop-opacity="0"/>
<stop offset="1" stop-color="#21ADF6"/>
</radialGradient>
<radialGradient id="paint1_radial_386_1119" cx="0" cy="0" r="1" gradientUnits="userSpaceOnUse" gradientTransform="translate(45.6318 81.5868) rotate(-93.6341) scale(79.2662 73.2303)">
<stop offset="0.674375" stop-color="#141F45" stop-opacity="0"/>
<stop offset="1" stop-color="#21ADF6"/>
</radialGradient>
<radialGradient id="paint2_radial_386_1119" cx="0" cy="0" r="1" gradientUnits="userSpaceOnUse" gradientTransform="translate(43.2585 42.7227) rotate(20.7128) scale(45.4368 48.7692)">
<stop offset="0.8625" stop-opacity="0"/>
<stop offset="0.923112" stop-color="#83DDDD"/>
<stop offset="1" stop-color="#83DDDD" stop-opacity="0"/>
</radialGradient>
<radialGradient id="paint3_diamond_386_1119" cx="0" cy="0" r="1" gradientUnits="userSpaceOnUse" gradientTransform="translate(48.0248 42.7227) rotate(56.8224) scale(68.9533 63.7299)">
<stop offset="0.591667" stop-color="#141F45" stop-opacity="0"/>
<stop offset="1" stop-color="#8CFF00"/>
</radialGradient>
<radialGradient id="paint4_radial_386_1119" cx="0" cy="0" r="1" gradientUnits="userSpaceOnUse" gradientTransform="translate(43.2586 38.5811) rotate(90) scale(36.6894 33.8956)">
<stop offset="0.857292" stop-color="#141F45" stop-opacity="0"/>
<stop offset="1" stop-color="#21ADF6"/>
</radialGradient>
<radialGradient id="paint5_radial_386_1119" cx="0" cy="0" r="1" gradientUnits="userSpaceOnUse" gradientTransform="translate(45.2866 75.9321) rotate(-93.6341) scale(67.7351 62.5772)">
<stop offset="0.674375" stop-color="#141F45" stop-opacity="0"/>
<stop offset="1" stop-color="#21ADF6"/>
</radialGradient>
<radialGradient id="paint6_radial_386_1119" cx="0" cy="0" r="1" gradientUnits="userSpaceOnUse" gradientTransform="translate(43.2586 42.7217) rotate(20.7128) scale(38.827 41.6746)">
<stop offset="0.8625" stop-opacity="0"/>
<stop offset="0.923112" stop-color="#83DDDD"/>
<stop offset="1" stop-color="#83DDDD" stop-opacity="0"/>
</radialGradient>
<radialGradient id="paint7_diamond_386_1119" cx="0" cy="0" r="1" gradientUnits="userSpaceOnUse" gradientTransform="translate(47.3314 42.7217) rotate(56.8224) scale(58.9224 54.4589)">
<stop offset="0.591667" stop-color="#141F45" stop-opacity="0"/>
<stop offset="1" stop-color="#8CFF00"/>
</radialGradient>
<radialGradient id="paint8_radial_386_1119" cx="0" cy="0" r="1" gradientUnits="userSpaceOnUse" gradientTransform="translate(43.2585 39.482) rotate(90) scale(25.0893 23.1789)">
<stop offset="0.857292" stop-color="#141F45" stop-opacity="0"/>
<stop offset="1" stop-color="#21ADF6"/>
</radialGradient>
<radialGradient id="paint9_radial_386_1119" cx="0" cy="0" r="1" gradientUnits="userSpaceOnUse" gradientTransform="translate(44.6454 65.0238) rotate(-93.6341) scale(46.3194 42.7923)">
<stop offset="0.674375" stop-color="#141F45" stop-opacity="0"/>
<stop offset="1" stop-color="#21ADF6"/>
</radialGradient>
<radialGradient id="paint10_radial_386_1119" cx="0" cy="0" r="1" gradientUnits="userSpaceOnUse" gradientTransform="translate(43.2585 42.3135) rotate(20.7128) scale(26.5511 28.4984)">
<stop offset="0.8625" stop-opacity="0"/>
<stop offset="0.923112" stop-color="#83DDDD"/>
<stop offset="1" stop-color="#83DDDD" stop-opacity="0"/>
</radialGradient>
<radialGradient id="paint11_diamond_386_1119" cx="0" cy="0" r="1" gradientUnits="userSpaceOnUse" gradientTransform="translate(46.0437 42.3135) rotate(56.8224) scale(40.293 37.2407)">
<stop offset="0.591667" stop-color="#141F45" stop-opacity="0"/>
<stop offset="1" stop-color="#8CFF00"/>
</radialGradient>
<radialGradient id="paint12_radial_386_1119" cx="0" cy="0" r="1" gradientUnits="userSpaceOnUse" gradientTransform="translate(42.2793 40.2719) rotate(90) scale(20.0731 18.5446)">
<stop offset="0.857292" stop-color="#141F45" stop-opacity="0"/>
<stop offset="1" stop-color="#21ADF6"/>
</radialGradient>
<radialGradient id="paint13_radial_386_1119" cx="0" cy="0" r="1" gradientUnits="userSpaceOnUse" gradientTransform="translate(43.3888 60.707) rotate(-93.6341) scale(37.0585 34.2366)">
<stop offset="0.674375" stop-color="#141F45" stop-opacity="0"/>
<stop offset="1" stop-color="#21ADF6"/>
</radialGradient>
<radialGradient id="paint14_radial_386_1119" cx="0" cy="0" r="1" gradientUnits="userSpaceOnUse" gradientTransform="translate(42.2792 42.5373) rotate(20.7128) scale(21.2426 22.8006)">
<stop offset="0.8625" stop-opacity="0"/>
<stop offset="0.923112" stop-color="#83DDDD"/>
<stop offset="1" stop-color="#83DDDD" stop-opacity="0"/>
</radialGradient>
<radialGradient id="paint15_diamond_386_1119" cx="0" cy="0" r="1" gradientUnits="userSpaceOnUse" gradientTransform="translate(44.5075 42.5372) rotate(56.8224) scale(32.237 29.795)">
<stop offset="0.591667" stop-color="#141F45" stop-opacity="0"/>
<stop offset="1" stop-color="#8CFF00"/>
</radialGradient>
<radialGradient id="paint16_radial_386_1119" cx="0" cy="0" r="1" gradientUnits="userSpaceOnUse" gradientTransform="translate(42.2796 40.7649) rotate(90) scale(13.7266 12.6814)">
<stop offset="0.857292" stop-color="#141F45" stop-opacity="0"/>
<stop offset="1" stop-color="#21ADF6"/>
</radialGradient>
<radialGradient id="paint17_radial_386_1119" cx="0" cy="0" r="1" gradientUnits="userSpaceOnUse" gradientTransform="translate(43.0383 54.739) rotate(-93.6341) scale(25.3418 23.4121)">
<stop offset="0.674375" stop-color="#141F45" stop-opacity="0"/>
<stop offset="1" stop-color="#21ADF6"/>
</radialGradient>
<radialGradient id="paint18_radial_386_1119" cx="0" cy="0" r="1" gradientUnits="userSpaceOnUse" gradientTransform="translate(42.2796 42.314) rotate(20.7128) scale(14.5264 15.5917)">
<stop offset="0.8625" stop-opacity="0"/>
<stop offset="0.923112" stop-color="#83DDDD"/>
<stop offset="1" stop-color="#83DDDD" stop-opacity="0"/>
</radialGradient>
<radialGradient id="paint19_diamond_386_1119" cx="0" cy="0" r="1" gradientUnits="userSpaceOnUse" gradientTransform="translate(43.8034 42.314) rotate(56.8224) scale(22.0447 20.3747)">
<stop offset="0.591667" stop-color="#141F45" stop-opacity="0"/>
<stop offset="1" stop-color="#8CFF00"/>
</radialGradient>
</defs>
</svg>
